<svg width="670" height="242" viewBox="0 0 670 242" fill="none" xmlns="http://www.w3.org/2000/svg">
<path d="M124.592 112.085C122.331 99.9137 106.418 93.2137 90.6175 101.812L94.6933 115.715L101.114 136.289L104.018 145.641C115.826 138.048 127.747 128.919 124.592 112.057V112.085ZM108.903 130.79C107.104 124.861 105.271 118.942 103.403 113.035L101.756 107.367C104.848 106.701 108.071 107.023 110.969 108.289C112.448 109.015 115.045 110.634 115.603 113.76C116.915 120.74 114.57 125.737 108.903 130.734V130.79ZM363.168 92.7671C360.986 90.7567 358.414 89.2173 355.611 88.2446C352.808 87.2719 349.835 86.8868 346.877 87.1133C343.918 87.3399 341.039 88.1732 338.417 89.5613C335.795 90.9495 333.486 92.8627 331.636 95.1818C329.786 97.501 328.433 100.176 327.662 103.041C326.891 105.906 326.718 108.899 327.154 111.834C327.59 114.768 328.625 117.581 330.196 120.098C331.767 122.615 333.839 124.782 336.284 126.462L364.703 94.2746C364.21 93.7536 363.698 93.2507 363.168 92.7671ZM336.34 115.435C334.965 112.928 334.394 110.058 334.703 107.215C335.013 104.372 336.188 101.692 338.07 99.5391C339.953 97.3859 342.451 95.8628 345.227 95.1758C348.003 94.4889 350.923 94.6713 353.592 95.6983L336.34 115.435ZM547.139 121.717C547.398 122.672 547.52 123.659 547.502 124.648C547.222 130.65 541.555 135.312 534.828 134.977C528.1 134.754 522.823 129.645 523.103 123.671C523.298 118.004 528.323 113.565 534.52 113.286C533.31 113.013 532.076 112.854 530.835 112.811C519.529 112.337 510.317 120.349 509.954 130.287C509.479 140.895 518.022 149.605 529.105 150.08C540.439 150.499 549.623 142.487 550.042 131.906C550.162 128.294 549.13 124.733 547.139 121.717ZM205.048 133.888C205.048 139.918 199.548 144.776 192.82 144.776C186.065 144.776 180.593 139.946 180.593 133.888C180.593 128.249 185.423 123.615 191.592 123.057C190.376 122.834 189.143 122.722 187.907 122.722C176.629 122.722 167.723 131.097 167.723 141.035C167.723 151.699 176.657 160.018 187.712 160.018C199.018 160.018 207.895 151.699 207.895 141.035C207.882 137.435 206.718 133.933 204.573 131.041C204.852 131.878 205.048 132.855 205.048 133.888ZM617.321 72.8904L612.296 93.5208L607.662 70.6292L545.743 57.0337L546.19 91.455L555.514 93.5488L554.844 99.7742L554.565 99.5787C543.007 93.4929 528.686 92.8788 515.202 97.9596C510.652 99.6346 506.436 101.952 502.64 104.715L493.288 45.7554H452.11L450.994 52.5671H407.639L402.698 82.8567L399.069 78.4179C393.909 72.0978 387.418 66.9944 380.059 63.4717C372.7 59.949 364.654 58.0939 356.496 58.0387L393.29 38.2458L367.663 0L321.237 53.4046L329.249 63.1754C322.296 65.98 315.918 70.0396 310.433 75.1517L270.68 39.865L256.805 66.4696L257.336 40.8979L195.193 60.7746L196.785 94.1629L207.365 91.4271L208.928 108.317C196.84 102.929 182.296 103.012 168.84 108.707C164.906 110.428 161.171 112.572 157.701 115.1C160.163 105.279 159.41 94.9263 155.552 85.5646C150.898 74.9226 142.887 66.0977 132.744 60.4396C125.49 55.6999 117.213 52.7528 108.596 51.8412C87.1 48.0725 61.2492 51.925 35.845 62.7846C26.8527 66.5577 18.1876 71.0676 9.93833 76.2683L0 82.5775L6.00208 92.7112L24.6225 124.173C24.6225 124.173 30.3175 133.832 30.3454 133.805L40.4233 128.863L41.8192 128.221L88.105 231.513L92.5717 241.423L102.901 238.129L127.914 230.089L138.913 226.6L136.01 215.433L122.722 164.373C126.546 161.554 130.092 158.539 133.414 155.412C132.66 161.526 133.051 167.695 134.726 173.614C138.188 185.981 146.339 195.752 157.562 201.14C169.705 207.002 184.501 207.002 198.208 201.195C205.104 198.292 211.245 194.021 216.382 188.94L218.28 209.263L262.11 202.815L262.054 163.536L353.676 208.761V164.932C366.937 163.612 379.761 159.462 391.28 152.76L387.427 176.294L436.84 184.082L439.548 166.3L452.417 190.14L460.318 174.926L463.221 199.911L519.194 209.738L516.235 190.922C526.228 191.991 536.314 190.067 545.213 185.395L542.979 205.439L580.276 210.715L580.555 225.985L619.359 238.213L670 85.6762L617.321 72.8904ZM398.482 95.5029L401.051 92.795L397.924 112.057L389.856 104.743L398.482 95.5029ZM365.625 16.9733L379.22 35.4262L340.416 54.6608L337.708 50.585L365.625 16.9733ZM108.735 159.097L124.229 218.504L99.16 226.516L47.7654 111.722C44.9737 113.202 39.8371 115.631 35.0633 117.948L16.4708 86.5137C23.8967 81.7958 31.9925 77.6083 40.6188 73.9512C64.8504 63.65 87.9933 60.5513 106.502 63.8454C113.007 64.5992 119.93 66.4975 126.044 70.5454C134.363 75.2354 140.7 81.8796 144.385 90.3941C153.318 111.052 138.355 140.84 108.735 159.097ZM223.92 148.545C223.64 157.422 220.374 166.244 214.958 173.753C209.655 181.18 202.425 187.02 194.049 190.643C172.302 199.855 150.582 190.643 144.804 169.985C139.137 150.052 152.23 126.295 173.279 117.222C186.762 111.583 200.246 112.895 209.905 119.455C215.852 123.531 220.43 129.617 222.552 137.238C223.589 140.923 224.051 144.747 223.92 148.572V148.545ZM342.175 190.531L251.334 145.055L251.501 192.709L227.967 195.919L226.32 176.294C233.579 163.843 236.231 149.159 232.462 135.703C230.468 128.506 226.617 121.959 221.295 116.72L217.917 76.715L207.393 79.4508L206.918 69.345L244.662 58.0666L246.979 97.0383L274.812 57.955L302.003 83.8337L263.98 123.922L299.713 138.076C303.677 145.613 309.763 152.034 317.412 156.78C324.783 161.33 333.269 164.038 342.23 164.904V190.531H342.175ZM294.995 124.648L282.321 119.79L294.13 108.345C293.6 113.593 293.851 119.092 294.967 124.648H294.995ZM393.876 136.568C385.166 143.799 375.172 148.489 362.079 151.643C359.305 152.312 356.488 152.788 353.648 153.067C332.795 155.105 315.291 145.53 308.647 130.008C307.826 128.127 307.181 126.173 306.72 124.173C303.65 111.108 306.274 99.4112 312.722 90.2546C314.61 87.5724 316.813 85.1262 319.283 82.9683C325.773 77.3152 333.56 73.3545 341.951 71.4387C361.828 66.665 379.332 72.7229 390.052 85.8717L352.225 126.183C355.464 126.452 358.726 126.14 361.856 125.262C370.873 123.057 375.926 118.283 380.365 113.09L395.495 126.658L400.074 130.845C398.105 132.855 396.036 134.765 393.876 136.568ZM474.193 190.364L465.985 135.815L454.316 165.909L436.868 128.277H436.672L429.805 171.827L400.744 166.802L404.82 142.515C405.92 141.475 406.999 140.414 408.058 139.332L417.494 129.617L408.309 121.41L418.08 63.5383H447.392L454.707 103.627L462.914 57.2013H483.907L492.617 113.76C481.562 126.351 476.147 143.352 479.888 158.846C481.331 165.232 484.274 171.184 488.473 176.208C492.672 181.232 498.006 185.185 504.035 187.74L505.152 195.082L474.193 190.364ZM546.636 172.581C543.386 174.892 539.848 176.769 536.112 178.164C529.266 180.906 521.784 181.652 514.532 180.314C510.033 179.456 505.769 177.647 502.025 175.01C495.949 170.562 491.686 164.068 490.021 156.724C487.788 147.344 489.826 137.294 494.879 128.472C497.419 124.173 500.657 120.153 504.482 116.664C508.725 112.839 513.695 109.685 519.194 107.591C532.008 102.789 544.654 104.464 553.532 110.829C559.472 115.096 563.659 121.376 565.312 128.5C568.048 139.835 564.81 151.895 557.663 161.637C554.595 165.85 550.872 169.545 546.636 172.581ZM612.045 223.975L590.549 217.582L588.707 138.355L577.875 199.492L554.425 195.724L556.156 178.136C571.426 165.183 579.55 144.776 575.111 126.323C573.258 118.337 569.035 111.097 562.995 105.553L564.978 84.8108L556.128 82.4379L556.686 71.3829L597.11 79.4787L610.705 143.91L624.635 86.1508L655.344 92.9625L612.045 223.975Z" fill="white"/>
</svg>
